<?xml version="1.0" encoding="UTF-8" standalone="no"?>
<svg
   xmlns:dc="http://purl.org/dc/elements/1.1/"
   xmlns:cc="http://creativecommons.org/ns#"
   xmlns:rdf="http://www.w3.org/1999/02/22-rdf-syntax-ns#"
   xmlns:svg="http://www.w3.org/2000/svg"
   xmlns="http://www.w3.org/2000/svg"
   xml:space="preserve"
   enable-background="new 0 0 273.268 82.323"
   viewBox="0 0 273.268 82.323"
   height="82.323px"
   width="273.268px"
   y="0px"
   x="0px"
   id="cmyk"
   version="1.1"><metadata
     id="metadata3622"><rdf:RDF><cc:Work
         rdf:about=""><dc:format>image/svg+xml</dc:format><dc:type
           rdf:resource="http://purl.org/dc/dcmitype/StillImage" /><dc:title></dc:title></cc:Work></rdf:RDF></metadata><defs
     id="defs3620" /><line
     id="line3500"
     y2="39.206"
     x2="19.027"
     y1="39.2"
     x1="11.552"
     stroke-miterlimit="10"
     stroke-width="2"
     stroke="#ffffff"
     fill="none" /><line
     id="line3502"
     y2="39.206"
     x2="19.027"
     y1="39.2"
     x1="11.552"
     stroke-miterlimit="10"
     stroke-width="2"
     stroke="#ffffff"
     fill="none" /><g
     id="g3504"><path
       id="path3506"
       d="M89.944,47.67h0.714l4.253,5.342V47.67h0.742v6.665h-0.607l-4.359-5.465v5.465h-0.743V47.67z"
       fill="#ffffff" /><path
       id="path3508"
       d="M101.984,47.622h0.713l3.076,6.713h-0.82l-0.791-1.762h-3.674l-0.8,1.762h-0.781L101.984,47.622z    M103.864,51.888l-1.534-3.39l-1.543,3.39H103.864z"
       fill="#ffffff" /><path
       id="path3510"
       d="M109.945,48.365h-2.266V47.67h5.304v0.695h-2.266v5.97h-0.771V48.365z"
       fill="#ffffff" /><path
       id="path3512"
       d="M116.402,47.67h0.762v6.665h-0.762V47.67z"
       fill="#ffffff" /><path
       id="path3514"
       d="M120.768,51.021v-0.019c0-1.837,1.398-3.447,3.453-3.447c2.054,0,3.433,1.59,3.433,3.428v0.019   c0,1.837-1.398,3.447-3.452,3.447S120.768,52.859,120.768,51.021z M126.862,51.021v-0.019c0-1.514-1.119-2.751-2.662-2.751   s-2.643,1.219-2.643,2.732v0.019c0,1.514,1.119,2.751,2.662,2.751S126.862,52.535,126.862,51.021z"
       fill="#ffffff" /><path
       id="path3516"
       d="M131.187,47.67h0.714l4.252,5.342V47.67h0.743v6.665h-0.607l-4.359-5.465v5.465h-0.743V47.67z"
       fill="#ffffff" /><path
       id="path3518"
       d="M143.226,47.622h0.714l3.076,6.713h-0.819l-0.791-1.762h-3.674l-0.8,1.762h-0.781L143.226,47.622z    M145.107,51.888l-1.533-3.39l-1.543,3.39H145.107z"
       fill="#ffffff" /><path
       id="path3520"
       d="M150.271,47.67h0.762v5.97h3.8v0.695h-4.562V47.67z"
       fill="#ffffff" /><path
       id="path3522"
       d="M162.684,51.021v-0.019c0-1.885,1.428-3.447,3.414-3.447c1.225,0,1.958,0.429,2.633,1.057l-0.521,0.553   c-0.569-0.533-1.206-0.914-2.122-0.914c-1.494,0-2.613,1.199-2.613,2.732v0.019c0,1.542,1.129,2.751,2.613,2.751   c0.926,0,1.533-0.352,2.18-0.961l0.502,0.486c-0.704,0.704-1.476,1.171-2.7,1.171C164.122,54.449,162.684,52.936,162.684,51.021z"
       fill="#ffffff" /><path
       id="path3524"
       d="M174.041,51.697l-2.806-4.027h0.926l2.275,3.333l2.295-3.333h0.888l-2.807,4.018v2.647h-0.771V51.697z"
       fill="#ffffff" /><path
       id="path3526"
       d="M180.757,47.67h2.873c0.771,0,1.38,0.219,1.765,0.59c0.28,0.286,0.435,0.638,0.435,1.066v0.019   c0,0.866-0.54,1.314-1.07,1.542c0.8,0.238,1.446,0.695,1.446,1.609v0.02c0,1.143-0.974,1.818-2.449,1.818h-2.999V47.67z    M185.058,49.432c0-0.657-0.53-1.086-1.495-1.086h-2.054v2.295h1.996c0.916,0,1.553-0.409,1.553-1.19V49.432z M183.64,51.307   h-2.131v2.352h2.267c1.021,0,1.658-0.448,1.658-1.19V52.45C185.434,51.726,184.817,51.307,183.64,51.307z"
       fill="#ffffff" /><path
       id="path3528"
       d="M189.644,47.67h4.879v0.686h-4.117v2.275h3.684v0.686h-3.684v2.333h4.166v0.686h-4.928V47.67z"
       fill="#ffffff" /><path
       id="path3530"
       d="M198.03,47.67h2.902c0.829,0,1.495,0.248,1.919,0.667c0.328,0.324,0.521,0.791,0.521,1.314v0.019   c0,1.104-0.771,1.752-1.832,1.942l2.073,2.723h-0.936l-1.957-2.59h-1.929v2.59h-0.762V47.67z M200.865,51.069   c1.013,0,1.735-0.515,1.735-1.371v-0.02c0-0.818-0.636-1.313-1.726-1.313h-2.083v2.704H200.865z"
       fill="#ffffff" /><path
       id="path3532"
       d="M206.482,53.364l0.473-0.552c0.704,0.628,1.379,0.942,2.314,0.942c0.907,0,1.505-0.476,1.505-1.133v-0.019   c0-0.619-0.338-0.971-1.756-1.266c-1.552-0.333-2.266-0.829-2.266-1.924v-0.019c0-1.048,0.936-1.819,2.218-1.819   c0.983,0,1.688,0.276,2.372,0.819l-0.443,0.581c-0.627-0.505-1.254-0.724-1.948-0.724c-0.877,0-1.437,0.476-1.437,1.076v0.019   c0,0.628,0.348,0.98,1.832,1.295c1.505,0.324,2.199,0.866,2.199,1.885v0.019c0,1.143-0.965,1.885-2.305,1.885   C208.17,54.43,207.292,54.078,206.482,53.364z"
       fill="#ffffff" /><path
       id="path3534"
       d="M215.022,47.67h4.879v0.686h-4.117v2.275h3.684v0.686h-3.684v2.333h4.166v0.686h-4.928V47.67z"
       fill="#ffffff" /><path
       id="path3536"
       d="M223.108,51.021v-0.019c0-1.885,1.428-3.447,3.414-3.447c1.225,0,1.958,0.429,2.633,1.057l-0.521,0.553   c-0.569-0.533-1.206-0.914-2.122-0.914c-1.494,0-2.613,1.199-2.613,2.732v0.019c0,1.542,1.129,2.751,2.613,2.751   c0.926,0,1.533-0.352,2.18-0.961l0.502,0.486c-0.704,0.704-1.476,1.171-2.7,1.171C224.545,54.449,223.108,52.936,223.108,51.021z"
       fill="#ffffff" /><path
       id="path3538"
       d="M232.342,51.545V47.67h0.762v3.828c0,1.438,0.781,2.247,2.063,2.247c1.244,0,2.035-0.743,2.035-2.2V47.67   h0.762v3.818c0,1.942-1.128,2.951-2.815,2.951C233.48,54.439,232.342,53.431,232.342,51.545z"
       fill="#ffffff" /><path
       id="path3540"
       d="M241.692,47.67h2.902c0.829,0,1.495,0.248,1.919,0.667c0.328,0.324,0.521,0.791,0.521,1.314v0.019   c0,1.104-0.771,1.752-1.832,1.942l2.073,2.723h-0.936l-1.957-2.59h-1.929v2.59h-0.762V47.67z M244.527,51.069   c1.013,0,1.735-0.515,1.735-1.371v-0.02c0-0.818-0.636-1.313-1.726-1.313h-2.083v2.704H244.527z"
       fill="#ffffff" /><path
       id="path3542"
       d="M250.656,47.67h0.762v6.665h-0.762V47.67z"
       fill="#ffffff" /><path
       id="path3544"
       d="M257.104,48.365h-2.266V47.67h5.304v0.695h-2.267v5.97h-0.771V48.365z"
       fill="#ffffff" /><path
       id="path3546"
       d="M265.605,51.697l-2.806-4.027h0.926L266,51.002l2.295-3.333h0.888l-2.807,4.018v2.647h-0.771V51.697z"
       fill="#ffffff" /><path
       id="path3548"
       d="M89.645,62.441v-0.019c0-1.885,1.427-3.447,3.414-3.447c1.225,0,1.958,0.428,2.632,1.057l-0.521,0.552   c-0.569-0.533-1.206-0.914-2.122-0.914c-1.495,0-2.613,1.2-2.613,2.733v0.019c0,1.542,1.128,2.752,2.613,2.752   c0.926,0,1.533-0.353,2.179-0.962l0.501,0.485c-0.704,0.705-1.476,1.171-2.7,1.171C91.082,65.869,89.645,64.354,89.645,62.441z"
       fill="#ffffff" /><path
       id="path3550"
       d="M99.852,59.089h4.88v0.686h-4.118v2.276h3.684v0.686h-3.684v2.333h4.166v0.686h-4.928V59.089z"
       fill="#ffffff" /><path
       id="path3552"
       d="M109.105,59.089h0.714l4.253,5.341v-5.341h0.742v6.665h-0.607l-4.359-5.465v5.465h-0.743V59.089z"
       fill="#ffffff" /><path
       id="path3554"
       d="M121.299,59.784h-2.266v-0.695h5.304v0.695h-2.266v5.97h-0.771V59.784z"
       fill="#ffffff" /><path
       id="path3556"
       d="M128.556,59.089h4.88v0.686h-4.118v2.276h3.684v0.686h-3.684v2.333h4.166v0.686h-4.928V59.089z"
       fill="#ffffff" /><path
       id="path3558"
       d="M137.809,59.089h2.903c0.829,0,1.495,0.248,1.919,0.667c0.328,0.324,0.521,0.79,0.521,1.314v0.019   c0,1.104-0.771,1.752-1.833,1.942l2.073,2.723h-0.935l-1.958-2.59h-1.929v2.59h-0.762V59.089z M140.644,62.488   c1.013,0,1.736-0.514,1.736-1.371v-0.019c0-0.819-0.637-1.314-1.726-1.314h-2.083v2.704H140.644z"
       fill="#ffffff" /><path
       id="path3560"
       d="M152.96,62.441v-0.019c0-1.838,1.398-3.447,3.453-3.447c2.054,0,3.433,1.59,3.433,3.428v0.019   c0,1.838-1.398,3.447-3.452,3.447S152.96,64.278,152.96,62.441z M159.055,62.441v-0.019c0-1.514-1.119-2.752-2.662-2.752   s-2.643,1.219-2.643,2.733v0.019c0,1.514,1.119,2.752,2.662,2.752S159.055,63.955,159.055,62.441z"
       fill="#ffffff" /><path
       id="path3562"
       d="M164.248,59.089h4.851v0.695h-4.089v2.381h3.654v0.686h-3.654v2.904h-0.762V59.089z"
       fill="#ffffff" /><path
       id="path3564"
       d="M179.052,59.089h4.879v0.686h-4.117v2.276h3.684v0.686h-3.684v2.333h4.166v0.686h-4.928V59.089z"
       fill="#ffffff" /><path
       id="path3566"
       d="M193.801,59.089l-2.487,3.266l2.584,3.399h-0.906l-2.16-2.875l-2.16,2.875h-0.878l2.585-3.399l-2.488-3.266   h0.896l2.064,2.742l2.063-2.742H193.801z"
       fill="#ffffff" /><path
       id="path3568"
       d="M197.307,62.441v-0.019c0-1.885,1.427-3.447,3.413-3.447c1.225,0,1.958,0.428,2.633,1.057l-0.521,0.552   c-0.569-0.533-1.205-0.914-2.122-0.914c-1.494,0-2.613,1.2-2.613,2.733v0.019c0,1.542,1.129,2.752,2.613,2.752   c0.926,0,1.534-0.353,2.18-0.962l0.502,0.485c-0.704,0.705-1.476,1.171-2.7,1.171C198.744,65.869,197.307,64.354,197.307,62.441z"
       fill="#ffffff" /><path
       id="path3570"
       d="M207.514,59.089h4.879v0.686h-4.117v2.276h3.684v0.686h-3.684v2.333h4.166v0.686h-4.928V59.089z"
       fill="#ffffff" /><path
       id="path3572"
       d="M216.767,59.089h0.762v5.97h3.8v0.695h-4.562V59.089z"
       fill="#ffffff" /><path
       id="path3574"
       d="M225.529,59.089h0.762v5.97h3.8v0.695h-4.562V59.089z"
       fill="#ffffff" /><path
       id="path3576"
       d="M234.29,59.089h4.879v0.686h-4.117v2.276h3.684v0.686h-3.684v2.333h4.166v0.686h-4.928V59.089z"
       fill="#ffffff" /><path
       id="path3578"
       d="M243.542,59.089h0.713l4.253,5.341v-5.341h0.743v6.665h-0.608l-4.358-5.465v5.465h-0.742V59.089z"
       fill="#ffffff" /><path
       id="path3580"
       d="M253.653,62.441v-0.019c0-1.885,1.428-3.447,3.414-3.447c1.225,0,1.958,0.428,2.633,1.057l-0.521,0.552   c-0.569-0.533-1.206-0.914-2.122-0.914c-1.494,0-2.613,1.2-2.613,2.733v0.019c0,1.542,1.129,2.752,2.613,2.752   c0.926,0,1.533-0.353,2.18-0.962l0.502,0.485c-0.704,0.705-1.476,1.171-2.7,1.171C255.09,65.869,253.653,64.354,253.653,62.441z"
       fill="#ffffff" /><path
       id="path3582"
       d="M263.861,59.089h4.879v0.686h-4.117v2.276h3.684v0.686h-3.684v2.333h4.166v0.686h-4.928V59.089z"
       fill="#ffffff" /></g><g
     id="g3584"><path
       id="path3586"
       d="M116.966,37.138c0,1.774-1.752,3.194-3.942,3.194c-1.095,0-2.08-0.355-2.81-0.946L93.679,25.782v14.283   h-3.504V26.669c0-1.774,1.752-3.194,3.942-3.194c1.095,0,2.081,0.355,2.811,0.946l16.534,13.603V23.742h3.504V37.138z"
       fill="#ffffff" /><path
       id="path3588"
       d="M135.765,40.065c-3.029,0-5.475-1.981-5.475-4.436v-7.452c0-2.455,2.445-4.436,5.475-4.436h21.097v2.839   h-23.067v10.646h23.067v2.839H135.765z"
       fill="#ffffff" /><path
       id="path3590"
       d="M175.661,40.065c-3.029,0-5.475-1.981-5.475-4.436v-7.452c0-2.455,2.446-4.436,5.475-4.436h21.097v2.839   H173.69v10.646h23.067v2.839H175.661z"
       fill="#ffffff" /><path
       id="path3592"
       d="M226.729,40.065h-12.617c-2.447,0-4.423-1.601-4.423-3.584v-6.021c0-1.983,1.976-3.584,4.423-3.584h12.617   c2.446,0,4.422,1.601,4.422,3.584v6.021C231.151,38.464,229.175,40.065,226.729,40.065z M228.321,29.169h-15.802v8.603h15.802   V29.169z"
       fill="#ffffff" /><path
       id="path3594"
       d="M247.787,40.065c-3.029,0-5.475-1.981-5.475-4.436v-7.452c0-2.455,2.445-4.436,5.475-4.436h21.097v2.839   h-23.067v3.903h23.067v2.839h-23.067v3.903h23.067v2.839H247.787z"
       fill="#ffffff" /></g><path
     id="path3596"
     d="M39.584,59.638"
     stroke-miterlimit="10"
     stroke-width="3"
     stroke="#53728F"
     fill="none" /><path
     id="path3598"
     d="M39.207,70.56"
     stroke-miterlimit="10"
     stroke-width="3"
     stroke="#53728F"
     fill="none" /><line
     id="line3600"
     y2="39.605"
     x2="93.668"
     y1="39.589"
     x1="41.862"
     stroke-miterlimit="10"
     stroke="#ffffff"
     fill="none" /><circle
     id="circle3602"
     r="5.17"
     cy="39.886"
     cx="41.237"
     fill="#ffffff" /><g
     id="g3604"><path
       id="path3606"
       d="M63.684,60.667   C48.005,75.788,29.813,72.92,18.773,60.689C7.735,48.458,8.647,29.643,20.81,18.666C32.972,7.688,51.958,8.31,62.997,20.541"
       stroke-miterlimit="10"
       stroke-width="2"
       stroke="#ffffff"
       fill="none" /><path
       id="path3608"
       d="M69.182,66.562c-19.525,18.652-41.724,15.725-56.6-0.453   c-14.353-15.61-13.795-40.907,2.68-54.139c16.453-13.215,37.356-11.872,53.782,2.51"
       stroke-miterlimit="10"
       stroke="#D5AF76"
       fill="none" /></g><path
     id="path3610"
     d="M39.584,59.638"
     stroke-miterlimit="10"
     stroke-width="3"
     stroke="#53728F"
     fill="none" /><path
     id="path3612"
     d="M39.207,70.56"
     stroke-miterlimit="10"
     stroke-width="3"
     stroke="#53728F"
     fill="none" /><g
     id="g3614"><path
       id="path3616"
       d="M18.464,40.874v-0.128c0-12.707,9.498-23.231,22.718-23.231c8.15,0,13.15,3.011,17.643,7.246l-3.589,3.6   C51.45,24.767,47.214,22.2,41.117,22.2c-9.946,0-17.391,8.086-17.391,18.418v0.128c0,10.396,7.508,18.546,17.391,18.546   c6.161,0,10.204-2.375,14.504-6.481l3.337,3.273c-4.685,4.75-9.819,7.893-17.969,7.893C28.026,63.977,18.464,53.773,18.464,40.874z   "
       fill="#ffffff" /></g></svg>
