<?xml version="1.0" encoding="UTF-8" standalone="no"?>
<svg
   xmlns:dc="http://purl.org/dc/elements/1.1/"
   xmlns:cc="http://creativecommons.org/ns#"
   xmlns:rdf="http://www.w3.org/1999/02/22-rdf-syntax-ns#"
   xmlns:svg="http://www.w3.org/2000/svg"
   xmlns="http://www.w3.org/2000/svg"
   viewBox="0 0 193.75 86.25"
   height="86.25"
   width="193.75"
   xml:space="preserve"
   version="1.1"
   id="svg2"><metadata
     id="metadata8"><rdf:RDF><cc:Work
         rdf:about=""><dc:format>image/svg+xml</dc:format><dc:type
           rdf:resource="http://purl.org/dc/dcmitype/StillImage" /></cc:Work></rdf:RDF></metadata><defs
     id="defs6"><clipPath
       id="clipPath146"
       clipPathUnits="userSpaceOnUse"><path
         id="path148"
         d="m 0,0 1543.18,0 0,681.262 L 0,681.262 0,0 Z" /></clipPath></defs><g
     transform="matrix(1.25,0,0,-1.25,0,86.25)"
     id="g10"><g
       transform="scale(0.1,0.1)"
       id="g12"><path
         id="path14"
         style="fill:#ffffff;fill-opacity:1;fill-rule:nonzero;stroke:none"
         d="m 3.78125,385.891 21.82035,0 39.957,-51.321 0.2305,0 0,51.321 21.8125,0 0,-83.942 -21.8125,0 -39.9688,51.43 -0.2187,0 0,-51.43 -21.82035,0 0,83.942" /><path
         id="path16"
         style="fill:#ffffff;fill-opacity:1;fill-rule:nonzero;stroke:none"
         d="m 118.23,330.449 c 0,-7.238 4.782,-12.789 13.032,-12.789 8.226,0 13.008,5.551 13.008,12.789 0,7.012 -4.782,12.922 -13.008,12.922 -8.25,0 -13.032,-5.91 -13.032,-12.922 z m 45.641,-28.5 -20.262,0 0,6.352 -0.218,0 c -3.571,-5.68 -10.571,-8.242 -17.262,-8.242 -16.918,0 -28.8399,14.132 -28.8399,30.511 0,16.371 11.6989,30.379 28.6089,30.379 6.571,0 13.493,-2.437 17.711,-7.449 l 0,5.559 20.262,0 0,-57.11" /><path
         id="path18"
         style="fill:#ffffff;fill-opacity:1;fill-rule:nonzero;stroke:none"
         d="m 199.488,301.949 -20.258,0 0,40.41 -6.57,0 0,16.7 6.57,0 0,17.152 20.258,0 0,-17.152 11.473,0 0,-16.7 -11.473,0 0,-40.41" /><path
         id="path20"
         style="fill:#ffffff;fill-opacity:1;fill-rule:nonzero;stroke:none"
         d="m 217.422,359.059 20.258,0 0,-57.11 -20.258,0 0,57.11 z m 21.476,21.929 c 0,-6.226 -5.117,-11.347 -11.359,-11.347 -6.238,0 -11.348,5.121 -11.348,11.347 0,6.242 5.11,11.352 11.348,11.352 6.242,0 11.359,-5.11 11.359,-11.352" /><path
         id="path22"
         style="fill:#ffffff;fill-opacity:1;fill-rule:nonzero;stroke:none"
         d="m 268.18,330.449 c 0,-7.238 4.781,-12.789 13.019,-12.789 8.242,0 13.031,5.551 13.031,12.789 0,7.012 -4.789,12.922 -13.031,12.922 -8.238,0 -13.019,-5.91 -13.019,-12.922 z m 47.422,0 c 0,-19.371 -16.032,-30.39 -34.403,-30.39 -18.25,0 -34.398,10.921 -34.398,30.39 0,19.481 16.027,30.5 34.398,30.5 18.371,0 34.403,-11.019 34.403,-30.5" /><path
         id="path24"
         style="fill:#ffffff;fill-opacity:1;fill-rule:nonzero;stroke:none"
         d="m 344.988,351.711 0.223,0 c 4.68,6.91 10.367,9.238 18.269,9.238 15.348,0 21.469,-9.679 21.469,-23.699 l 0,-35.301 -20.258,0 0,27.832 c 0,5.457 0.899,15.028 -9.113,15.028 -8.25,0 -10.59,-6.118 -10.59,-13.25 l 0,-29.61 -20.258,0 0,57.11 20.258,0 0,-7.348" /><path
         id="path26"
         style="fill:#ffffff;fill-opacity:1;fill-rule:nonzero;stroke:none"
         d="m 415.121,330.449 c 0,-7.238 4.801,-12.789 13.027,-12.789 8.243,0 13.043,5.551 13.043,12.789 0,7.012 -4.8,12.922 -13.043,12.922 -8.226,0 -13.027,-5.91 -13.027,-12.922 z m 45.649,-28.5 -20.258,0 0,6.352 -0.231,0 c -3.551,-5.68 -10.57,-8.242 -17.25,-8.242 -16.922,0 -28.832,14.132 -28.832,30.511 0,16.371 11.68,30.379 28.621,30.379 6.559,0 13.461,-2.437 17.692,-7.449 l 0,5.559 20.258,0 0,-57.11" /><path
         id="path28"
         style="fill:#ffffff;fill-opacity:1;fill-rule:nonzero;stroke:none"
         d="m 474.23,301.961 20.2695,0 0,92.3984 -20.2695,0 0,-92.3984 z" /><path
         id="path30"
         style="fill:#ffffff;fill-opacity:1;fill-rule:nonzero;stroke:none"
         d="m 546.48,301.949 21.8203,0 0,83.9414 -21.8203,0 0,-83.9414 z" /><path
         id="path32"
         style="fill:#ffffff;fill-opacity:1;fill-rule:nonzero;stroke:none"
         d="m 602.371,351.711 0.231,0 c 4.679,6.91 10.339,9.238 18.257,9.238 15.36,0 21.469,-9.679 21.469,-23.699 l 0,-35.301 -20.25,0 0,27.832 c 0,5.457 0.891,15.028 -9.137,15.028 -8.23,0 -10.57,-6.118 -10.57,-13.25 l 0,-29.61 -20.262,0 0,57.11 20.262,0 0,-7.348" /><path
         id="path34"
         style="fill:#ffffff;fill-opacity:1;fill-rule:nonzero;stroke:none"
         d="m 693.441,344.359 c -3.121,1.68 -7.453,2.789 -10.921,2.789 -2.329,0 -6.34,-0.988 -6.34,-3.898 0,-3.898 6.34,-4.441 9.129,-5.012 9.472,-1.886 16.589,-6.347 16.589,-16.91 0,-15.027 -13.687,-21.269 -26.929,-21.269 -8.129,0 -16.16,2.339 -23.047,6.57 l 7.34,14.133 c 4.109,-2.891 11.027,-5.801 16.027,-5.801 2.57,0 6.352,1.23 6.352,4.359 0,4.45 -6.352,4.668 -12.692,6.352 -6.359,1.648 -12.699,4.777 -12.699,15.027 0,14.02 12.699,20.25 25.16,20.25 6.469,0 12.918,-1 18.82,-3.668 l -6.789,-12.922" /><path
         id="path36"
         style="fill:#ffffff;fill-opacity:1;fill-rule:nonzero;stroke:none"
         d="m 734.961,301.949 -20.262,0 0,40.41 -6.57,0 0,16.7 6.57,0 0,17.152 20.262,0 0,-17.152 11.48,0 0,-16.7 -11.48,0 0,-40.41" /><path
         id="path38"
         style="fill:#ffffff;fill-opacity:1;fill-rule:nonzero;stroke:none"
         d="m 752.879,359.059 20.262,0 0,-57.11 -20.262,0 0,57.11 z m 21.492,21.929 c 0,-6.226 -5.133,-11.347 -11.359,-11.347 -6.231,0 -11.364,5.121 -11.364,11.347 0,6.242 5.133,11.352 11.364,11.352 6.226,0 11.359,-5.11 11.359,-11.352" /><path
         id="path40"
         style="fill:#ffffff;fill-opacity:1;fill-rule:nonzero;stroke:none"
         d="m 808.648,301.949 -20.257,0 0,40.41 -6.571,0 0,16.7 6.571,0 0,17.152 20.257,0 0,-17.152 11.473,0 0,-16.7 -11.473,0 0,-40.41" /><path
         id="path42"
         style="fill:#ffffff;fill-opacity:1;fill-rule:nonzero;stroke:none"
         d="m 846.5,359.059 0,-30.508 c 0,-7.223 1.789,-12.36 10.141,-12.36 8.347,0 10.129,5.137 10.129,12.36 l 0,30.508 20.261,0 0,-34.411 c 0,-18.796 -13.261,-24.589 -30.39,-24.589 -17.141,0 -30.403,5.793 -30.403,24.589 l 0,34.411 20.262,0" /><path
         id="path44"
         style="fill:#ffffff;fill-opacity:1;fill-rule:nonzero;stroke:none"
         d="m 922.102,301.949 -20.274,0 0,40.41 -6.558,0 0,16.7 6.558,0 0,17.152 20.274,0 0,-17.152 11.468,0 0,-16.7 -11.468,0 0,-40.41" /><path
         id="path46"
         style="fill:#ffffff;fill-opacity:1;fill-rule:nonzero;stroke:none"
         d="m 979.871,338.809 c -1.012,5.441 -6.012,9 -11.461,9 -5.898,0 -10.808,-3.11 -12.031,-9 l 23.492,0 z m 18.82,-11.7 -42.632,0 c 0,-8.238 4.332,-12.679 12.679,-12.679 4.34,0 7.461,1.441 9.692,5.218 l 19.468,0 c -3.218,-13.468 -16.019,-19.589 -29.058,-19.589 -18.918,0 -33.059,10.679 -33.059,30.39 0,19.039 13.028,30.5 31.629,30.5 19.809,0 31.281,-12.238 31.281,-31.719 l 0,-2.121" /><path
         id="path48"
         style="fill:#ffffff;fill-opacity:1;fill-rule:nonzero;stroke:none"
         d="m 1063.26,330.449 c 0,-7.238 4.78,-12.789 13.01,-12.789 8.26,0 13.04,5.551 13.04,12.789 0,7.012 -4.78,12.922 -13.04,12.922 -8.23,0 -13.01,-5.91 -13.01,-12.922 z m 47.42,0 c 0,-19.371 -16.04,-30.39 -34.41,-30.39 -18.25,0 -34.39,10.921 -34.39,30.39 0,19.481 16.03,30.5 34.39,30.5 18.37,0 34.41,-11.019 34.41,-30.5" /><path
         id="path50"
         style="fill:#ffffff;fill-opacity:1;fill-rule:nonzero;stroke:none"
         d="m 1142.08,301.949 -20.26,0 0,40.41 -7.14,0 0,16.7 7.14,0 0,7.242 c 0,7.898 0.21,13.687 5.78,20.039 5.01,5.898 12.24,9.121 19.93,9.121 3.11,0 5.9,-0.551 8.69,-2 l 0,-17.473 c -2.34,1 -4.46,1.883 -7.14,1.883 -5.22,0 -7,-3.109 -7,-9.57 l 0,-9.242 14.14,0 0,-16.7 -14.14,0 0,-40.41" /><path
         id="path52"
         style="fill:#ffffff;fill-opacity:1;fill-rule:nonzero;stroke:none"
         d="m 49.8711,229.941 c -4.0195,3.329 -9.1328,5.547 -14.4609,5.547 -4.0196,0 -9.3594,-2.347 -9.3594,-7 0,-4.91 5.8906,-6.789 9.6797,-8.019 l 5.5703,-1.668 c 11.6875,-3.449 20.7109,-9.34 20.7109,-22.93 0,-8.351 -2.0117,-16.922 -8.6836,-22.609 -6.5664,-5.551 -15.3789,-7.891 -23.8281,-7.891 -10.5703,0 -20.94141,3.559 -29.5,9.57 l 9.33984,17.59 c 5.46096,-4.793 11.92186,-8.679 19.37896,-8.679 5.121,0 10.5703,2.546 10.5703,8.449 0,6.121 -8.5586,8.25 -13.2383,9.57 -13.6914,3.899 -22.72267,7.469 -22.72267,23.731 0,17.027 12.14067,28.148 28.96097,28.148 8.4492,0 18.8007,-2.672 26.2695,-6.891 l -8.6875,-16.918" /><path
         id="path54"
         style="fill:#ffffff;fill-opacity:1;fill-rule:nonzero;stroke:none"
         d="m 94.0703,167.59 -20.2617,0 0,40.422 -6.5703,0 0,16.687 6.5703,0 0,17.16 20.2617,0 0,-17.16 11.4687,0 0,-16.687 -11.4687,0 0,-40.422" /><path
         id="path56"
         style="fill:#ffffff;fill-opacity:1;fill-rule:nonzero;stroke:none"
         d="m 128.801,196.078 c 0,-7.219 4.777,-12.789 13.027,-12.789 8.231,0 13.012,5.57 13.012,12.789 0,7.024 -4.781,12.922 -13.012,12.922 -8.25,0 -13.027,-5.898 -13.027,-12.922 z m 45.64,-28.488 -20.261,0 0,6.351 -0.219,0 c -3.57,-5.691 -10.57,-8.242 -17.262,-8.242 -16.91,0 -28.84,14.121 -28.84,30.5 0,16.379 11.7,30.379 28.621,30.379 6.559,0 13.481,-2.43 17.7,-7.437 l 0,5.558 20.261,0 0,-57.109" /><path
         id="path58"
         style="fill:#ffffff;fill-opacity:1;fill-rule:nonzero;stroke:none"
         d="m 208.172,217.34 0.219,0 c 4.679,6.922 10.371,9.238 18.269,9.238 15.352,0 21.488,-9.668 21.488,-23.687 l 0,-35.301 -20.277,0 0,27.832 c 0,5.457 0.899,15.027 -9.109,15.027 -8.25,0 -10.59,-6.121 -10.59,-13.238 l 0,-29.621 -20.262,0 0,57.109 20.262,0 0,-7.359" /><path
         id="path60"
         style="fill:#ffffff;fill-opacity:1;fill-rule:nonzero;stroke:none"
         d="m 279.078,196.078 c 0,-7.219 4.801,-12.789 13.031,-12.789 8.243,0 13.039,5.57 13.039,12.789 0,7.024 -4.796,12.922 -13.039,12.922 -8.23,0 -13.031,-5.898 -13.031,-12.922 z m 25.391,-22.137 -0.231,0 c -3.547,-5.691 -10.566,-8.242 -17.238,-8.242 -16.93,0 -28.84,14.121 -28.84,30.5 0,16.379 11.68,30.379 28.621,30.379 6.571,0 13.457,-2.43 17.688,-7.437 l 0,40.859 20.261,0 0,-92.41 -20.261,0 0,6.351" /><path
         id="path62"
         style="fill:#ffffff;fill-opacity:1;fill-rule:nonzero;stroke:none"
         d="m 354.238,196.078 c 0,-7.219 4.782,-12.789 13.024,-12.789 8.238,0 13.027,5.57 13.027,12.789 0,7.024 -4.789,12.922 -13.027,12.922 -8.242,0 -13.024,-5.898 -13.024,-12.922 z m 45.633,-28.488 -20.262,0 0,6.351 -0.218,0 c -3.551,-5.691 -10.571,-8.242 -17.25,-8.242 -16.93,0 -28.832,14.121 -28.832,30.5 0,16.379 11.679,30.379 28.613,30.379 6.566,0 13.469,-2.43 17.687,-7.437 l 0,5.558 20.262,0 0,-57.109" /><path
         id="path64"
         style="fill:#ffffff;fill-opacity:1;fill-rule:nonzero;stroke:none"
         d="m 433.609,215.352 0.231,0 c 3.879,7 10.57,10.117 18.469,10.117 l 3.902,0 0,-19.457 c -2.789,1.547 -5.461,1.886 -8.582,1.886 -11.238,0 -14.02,-7.468 -14.02,-17.269 l 0,-23.039 -20.257,0 0,57.109 20.257,0 0,-9.347" /><path
         id="path66"
         style="fill:#ffffff;fill-opacity:1;fill-rule:nonzero;stroke:none"
         d="m 481.371,196.078 c 0,-7.219 4.789,-12.789 13.02,-12.789 8.25,0 13.031,5.57 13.031,12.789 0,7.024 -4.781,12.922 -13.031,12.922 -8.231,0 -13.02,-5.898 -13.02,-12.922 z m 25.367,-22.137 -0.218,0 c -3.559,-5.691 -10.571,-8.242 -17.239,-8.242 -16.941,0 -28.84,14.121 -28.84,30.5 0,16.379 11.68,30.379 28.61,30.379 6.57,0 13.469,-2.43 17.687,-7.437 l 0,40.859 20.262,0 0,-92.41 -20.262,0 0,6.351" /><path
         id="path68"
         style="fill:#ffffff;fill-opacity:1;fill-rule:nonzero;stroke:none"
         d="m 577.441,210 c -3.113,1.68 -7.461,2.781 -10.91,2.781 -2.34,0 -6.34,-0.98 -6.34,-3.89 0,-3.903 6.34,-4.442 9.118,-5.012 9.461,-1.891 16.601,-6.34 16.601,-16.918 0,-15.02 -13.711,-21.262 -26.949,-21.262 -8.133,0 -16.141,2.34 -23.051,6.571 l 7.352,14.128 c 4.117,-2.878 11.019,-5.789 16.027,-5.789 2.57,0 6.34,1.231 6.34,4.34 0,4.449 -6.34,4.692 -12.688,6.36 -6.339,1.652 -12.679,4.769 -12.679,15.031 0,14.019 12.679,20.238 25.16,20.238 6.449,0 12.906,-0.976 18.808,-3.656 L 577.441,210" /><path
         id="path70"
         style="fill:#ffffff;fill-opacity:1;fill-rule:nonzero;stroke:none"
         d="m 651.801,196.078 c 0,-7.219 4.801,-12.789 13.027,-12.789 8.231,0 13.031,5.57 13.031,12.789 0,7.024 -4.8,12.922 -13.031,12.922 -8.226,0 -13.027,-5.898 -13.027,-12.922 z m 45.648,-28.488 -20.269,0 0,6.351 -0.219,0 c -3.551,-5.691 -10.57,-8.242 -17.242,-8.242 -16.938,0 -28.84,14.121 -28.84,30.5 0,16.379 11.68,30.379 28.609,30.379 6.571,0 13.461,-2.43 17.692,-7.437 l 0,5.558 20.269,0 0,-57.109" /><path
         id="path72"
         style="fill:#ffffff;fill-opacity:1;fill-rule:nonzero;stroke:none"
         d="m 731.18,217.34 0.23,0 c 4.66,6.922 10.352,9.238 18.25,9.238 15.36,0 21.488,-9.668 21.488,-23.687 l 0,-35.301 -20.257,0 0,27.832 c 0,5.457 0.879,15.027 -9.129,15.027 -8.231,0 -10.582,-6.121 -10.582,-13.238 l 0,-29.621 -20.27,0 0,57.109 20.27,0 0,-7.359" /><path
         id="path74"
         style="fill:#ffffff;fill-opacity:1;fill-rule:nonzero;stroke:none"
         d="m 802.102,196.078 c 0,-7.219 4.777,-12.789 13.007,-12.789 8.243,0 13.032,5.57 13.032,12.789 0,7.024 -4.789,12.922 -13.032,12.922 -8.23,0 -13.007,-5.898 -13.007,-12.922 z m 25.378,-22.137 -0.218,0 c -3.571,-5.691 -10.582,-8.242 -17.274,-8.242 -16.918,0 -28.828,14.121 -28.828,30.5 0,16.379 11.699,30.379 28.621,30.379 6.559,0 13.457,-2.43 17.699,-7.437 l 0,40.859 20.27,0 0,-92.41 -20.27,0 0,6.351" /><path
         id="path76"
         style="fill:#ffffff;fill-opacity:1;fill-rule:nonzero;stroke:none"
         d="m 932.461,167.59 -21.82,0 0,65.48 -18.051,0 0,18.469 57.898,0 0,-18.469 -18.027,0 0,-65.48" /><path
         id="path78"
         style="fill:#ffffff;fill-opacity:1;fill-rule:nonzero;stroke:none"
         d="m 989.559,204.449 c -0.989,5.442 -6,9 -11.457,9 -5.911,0 -10.801,-3.109 -12.032,-9 l 23.489,0 z m 18.811,-11.699 -42.632,0 c 0,-8.25 4.332,-12.68 12.692,-12.68 4.351,0 7.461,1.43 9.691,5.211 l 19.469,0 c -3.22,-13.461 -16.02,-19.582 -29.039,-19.582 -18.949,0 -33.071,10.68 -33.071,30.379 0,19.051 13.02,30.5 31.622,30.5 19.808,0 31.268,-12.226 31.268,-31.719 l 0,-2.109" /><path
         id="path80"
         style="fill:#ffffff;fill-opacity:1;fill-rule:nonzero;stroke:none"
         d="m 1058.8,206.102 c -2.99,2.226 -6.56,4.019 -10.46,4.019 -7.78,0 -13.91,-6.019 -13.91,-13.922 0,-8.238 5.9,-14.027 14.26,-14.027 3.55,0 7.45,1.449 10.11,3.887 l 0,-17.129 c -4.45,-2.239 -9.33,-3.231 -14.23,-3.231 -16.94,0 -31.06,12.571 -31.06,29.852 0,18.347 14.01,31.027 31.93,31.027 4.68,0 9.36,-1.109 13.36,-3.328 l 0,-17.148" /><path
         id="path82"
         style="fill:#ffffff;fill-opacity:1;fill-rule:nonzero;stroke:none"
         d="m 1091.65,260 0,-42.539 0.22,0 c 4.68,6.238 10.35,9.117 18.25,9.117 14.48,0 21.49,-9.566 21.49,-24.027 l 0,-34.961 -20.26,0 0,29.269 c 0,6.692 -1,13.59 -9.13,13.59 -8.01,0 -10.57,-6.898 -10.57,-13.59 l 0,-29.269 -20.26,0 0,92.41 20.26,0" /><path
         id="path84"
         style="fill:#ffffff;fill-opacity:1;fill-rule:nonzero;stroke:none"
         d="m 1165.23,217.34 0.22,0 c 4.68,6.922 10.37,9.238 18.27,9.238 15.36,0 21.49,-9.668 21.49,-23.687 l 0,-35.301 -20.27,0 0,27.832 c 0,5.457 0.89,15.027 -9.12,15.027 -8.25,0 -10.59,-6.121 -10.59,-13.238 l 0,-29.621 -20.25,0 0,57.109 20.25,0 0,-7.359" /><path
         id="path86"
         style="fill:#ffffff;fill-opacity:1;fill-rule:nonzero;stroke:none"
         d="m 1235.71,196.078 c 0,-7.219 4.78,-12.789 13.02,-12.789 8.25,0 13.02,5.57 13.02,12.789 0,7.024 -4.77,12.922 -13.02,12.922 -8.24,0 -13.02,-5.898 -13.02,-12.922 z m 47.42,0 c 0,-19.359 -16.04,-30.379 -34.4,-30.379 -18.26,0 -34.41,10.922 -34.41,30.379 0,19.5 16.04,30.5 34.41,30.5 18.36,0 34.4,-11 34.4,-30.5" /><path
         id="path88"
         style="fill:#ffffff;fill-opacity:1;fill-rule:nonzero;stroke:none"
         d="m 1292.26,167.59 20.25,0 0,92.4102 -20.25,0 0,-92.4102 z" /><path
         id="path90"
         style="fill:#ffffff;fill-opacity:1;fill-rule:nonzero;stroke:none"
         d="m 1343.02,196.078 c 0,-7.219 4.79,-12.789 13.03,-12.789 8.24,0 13.03,5.57 13.03,12.789 0,7.024 -4.79,12.922 -13.03,12.922 -8.24,0 -13.03,-5.898 -13.03,-12.922 z m 47.42,0 c 0,-19.359 -16.01,-30.379 -34.39,-30.379 -18.26,0 -34.4,10.922 -34.4,30.379 0,19.5 16.04,30.5 34.4,30.5 18.38,0 34.39,-11 34.39,-30.5" /><path
         id="path92"
         style="fill:#ffffff;fill-opacity:1;fill-rule:nonzero;stroke:none"
         d="m 1416.6,196.531 c 0,-7.222 4.8,-12.801 13.04,-12.801 8.23,0 13.03,5.579 13.03,12.801 0,7.02 -4.8,12.93 -13.03,12.93 -8.24,0 -13.04,-5.91 -13.04,-12.93 z m 45.66,-23.383 c 0,-24.257 -12.03,-34.046 -33.07,-34.046 -13.14,0 -30.74,6.777 -32.52,21.796 l 22.72,0 c 0.57,-1.988 2.01,-3.449 3.79,-4.328 1.78,-0.89 3.89,-1.34 5.78,-1.34 10.92,0 13.03,7.122 13.03,16.379 l 0,2.672 c -5.24,-5.25 -10.57,-7.801 -18.15,-7.801 -16.7,0 -28.16,12.692 -28.16,29.161 0,16.687 11.82,30.937 29.28,30.937 6.7,0 12.81,-2.219 16.81,-7.887 l 0.22,0 0,6.008 20.27,0 0,-51.551" /><path
         id="path94"
         style="fill:#ffffff;fill-opacity:1;fill-rule:nonzero;stroke:none"
         d="m 1466.6,224.699 23.38,0 15.25,-29.277 14.92,29.277 23.03,0 -45.74,-85.597 -22.72,0 19.49,36.289 -27.61,49.308" /><path
         id="path96"
         style="fill:#ffffff;fill-opacity:1;fill-rule:nonzero;stroke:none"
         d="m 14.25,63.3398 c 0,-6.2382 -0.2305,-13.3398 3.6719,-18.6992 3.6679,-5.1093 10.7969,-8.0195 16.9062,-8.0195 6.0235,0 12.5938,2.7773 16.4805,7.4687 4.4609,5.3321 4.1328,12.6915 4.1328,19.25 l 0,50.0002 9.3399,0 0,-52.5509 c 0,-9.1289 -0.6602,-16.3789 -7.3516,-23.2696 -5.7813,-6.2382 -14.1211,-9.5703 -22.6016,-9.5703 -7.8984,0 -16.0273,3 -21.6992,8.5625 -7.33984,7.0196 -8.23827,14.6992 -8.23827,24.2774 l 0,52.5509 9.35937,0 0,-50.0002" /><path
         id="path98"
         style="fill:#ffffff;fill-opacity:1;fill-rule:nonzero;stroke:none"
         d="m 96.2813,34.2813 c 0,-3.4532 -2.7696,-6.3321 -6.2227,-6.3321 -3.4375,0 -6.2383,2.8789 -6.2383,6.3321 0,3.3593 2.8008,6.1289 6.2383,6.1289 3.4531,0 6.2227,-2.7696 6.2227,-6.1289" /><path
         id="path100"
         style="fill:#ffffff;fill-opacity:1;fill-rule:nonzero;stroke:none"
         d="m 153.738,96.9609 c -3.347,5.7891 -7.347,9.1291 -14.476,9.1291 -7.453,0 -13.91,-5.34 -13.91,-13.0197 0,-7.2422 7.468,-10.582 13.136,-13.1484 l 5.563,-2.4414 c 10.918,-4.7813 20.148,-10.2422 20.148,-23.5821 0,-14.6992 -11.801,-25.9492 -26.379,-25.9492 -13.48,0 -23.492,8.6719 -26.16,21.6992 l 9.129,2.5704 c 1.211,-8.5899 7.781,-15.5977 16.813,-15.5977 9.007,0 17.238,6.9102 17.238,16.3789 0,9.7813 -7.668,13.1289 -15.449,16.6992 l -5.141,2.211 c -9.789,4.4687 -18.262,9.4687 -18.262,21.5 0,13.0308 11.024,21.3708 23.5,21.3708 9.364,0 17.262,-4.793 21.711,-13.019 l -7.461,-4.8011" /><path
         id="path102"
         style="fill:#ffffff;fill-opacity:1;fill-rule:nonzero;stroke:none"
         d="m 192.809,34.2813 c 0,-3.4532 -2.789,-6.3321 -6.231,-6.3321 -3.449,0 -6.238,2.8789 -6.238,6.3321 0,3.3593 2.789,6.1289 6.238,6.1289 3.442,0 6.231,-2.7696 6.231,-6.1289" /><path
         id="path104"
         style="fill:#ffffff;fill-opacity:1;fill-rule:nonzero;stroke:none"
         d="m 262.621,38.0781 c 10.238,0 18.801,1.4532 26.5,8.6836 6.891,6.4375 10.457,15.2383 10.457,24.6094 0,9.5781 -3.668,18.8203 -10.906,25.1406 -7.684,6.8083 -16.141,8.1293 -26.051,8.1293 l -6.793,0 0,-66.5629 6.793,0 z m -16.16,75.2619 15.828,0 c 12.563,0 22.813,-1.68 32.723,-10.141 C 304.59,94.9492 308.93,83.7188 308.93,71.2617 308.93,59 304.469,48.1914 295.23,39.9805 285.211,31.0703 275.199,29.3906 262.059,29.3906 l -15.598,0 0,83.9494" /><path
         id="path106"
         style="fill:#ffffff;fill-opacity:1;fill-rule:nonzero;stroke:none"
         d="m 358.141,61.2305 c -1.231,7.5703 -7.571,13.6914 -15.371,13.6914 -7.68,0 -14.801,-6.1211 -15.918,-13.6914 l 31.289,0 z M 326.41,53.6484 c 0.102,-9.6875 7,-17.4687 17.141,-17.4687 7.57,0 12.461,4.5586 15.918,10.8008 l 7.562,-4.3321 c -5.011,-9.3593 -13.472,-14.6992 -24.152,-14.6992 -15.59,0 -25.598,11.9024 -25.598,26.9297 0,15.4805 9.008,28.2813 25.391,28.2813 16.797,0 25.707,-13.9102 24.808,-29.5118 l -41.07,0" /><path
         id="path108"
         style="fill:#ffffff;fill-opacity:1;fill-rule:nonzero;stroke:none"
         d="m 387.738,56.1094 c 0,-10.2383 6.012,-19.9297 17.16,-19.9297 11.454,0 17.461,9.2422 17.461,19.8203 0,10.4609 -6.558,18.9219 -17.578,18.9219 -10.351,0 -17.043,-9.0117 -17.043,-18.8125 z m 0.453,18.1523 0.219,0 c 4.34,5.7891 10.801,8.8985 18.051,8.8985 15.348,0 25.039,-13.25 25.039,-27.7188 0,-14.9219 -9.461,-27.4922 -25.172,-27.4922 -7.117,0 -13.687,3.1211 -17.918,8.7891 l -0.219,0 0,-36.7383 -8.91,0 0,81.7305 8.91,0 0,-7.4688" /><path
         id="path110"
         style="fill:#ffffff;fill-opacity:1;fill-rule:nonzero;stroke:none"
         d="m 448.641,56.1094 c 0,-10.2383 6.007,-19.9297 17.14,-19.9297 11.469,0 17.481,9.2422 17.481,19.8203 0,10.4609 -6.571,18.9219 -17.59,18.9219 -10.344,0 -17.031,-9.0117 -17.031,-18.8125 z m 43.078,-26.7188 -8.91,0 0,7.2305 -0.219,0 c -4.559,-5.793 -10.68,-8.6719 -18.031,-8.6719 -15.368,0 -25.047,13.0196 -25.047,27.4922 0,14.918 9.457,27.7188 25.16,27.7188 7.117,0 13.578,-3.3399 17.918,-8.8985 l 0.219,0 0,7.4688 8.91,0 0,-52.3399" /><path
         id="path112"
         style="fill:#ffffff;fill-opacity:1;fill-rule:nonzero;stroke:none"
         d="m 516.66,76.0313 0.219,0 c 3.121,4.1406 5.793,7.1289 11.582,7.1289 3.008,0 5.461,-1 8.019,-2.461 l -4.23,-8.1211 c -1.781,1.2305 -3.012,2.3438 -5.352,2.3438 -9.789,0 -10.238,-12.5703 -10.238,-19.3711 l 0,-26.1602 -8.91,0 0,52.3399 8.91,0 0,-5.6992" /><path
         id="path114"
         style="fill:#ffffff;fill-opacity:1;fill-rule:nonzero;stroke:none"
         d="m 557.07,29.3906 -8.91,0 0,44.0899 -5.449,0 0,8.25 5.449,0 0,18.8005 8.91,0 0,-18.8005 9.36,0 0,-8.25 -9.36,0 0,-44.0899" /><path
         id="path116"
         style="fill:#ffffff;fill-opacity:1;fill-rule:nonzero;stroke:none"
         d="m 583.352,76.0313 0.218,0 c 2.77,4.3476 7.231,7.1289 12.578,7.1289 6.122,0 11.68,-3.2383 14.473,-8.6914 3.117,5.8007 9.34,8.6914 15.699,8.6914 13.352,0 16.692,-10.9102 16.692,-21.9297 l 0,-31.8399 -8.91,0 0,30.3907 c 0,6.7968 -0.43,15.1406 -9.563,15.1406 -10.25,0 -11.359,-9.9024 -11.359,-17.8203 l 0,-27.711 -8.899,0 0,29.7188 c 0,6.4687 -0.781,15.8125 -9.359,15.8125 -10.473,0 -11.57,-10.5703 -11.57,-18.4727 l 0,-27.0586 -8.922,0 0,52.3399 8.922,0 0,-5.6992" /><path
         id="path118"
         style="fill:#ffffff;fill-opacity:1;fill-rule:nonzero;stroke:none"
         d="m 696.109,61.2305 c -1.218,7.5703 -7.558,13.6914 -15.359,13.6914 -7.672,0 -14.809,-6.1211 -15.922,-13.6914 l 31.281,0 z m -31.718,-7.5821 c 0.109,-9.6875 7.007,-17.4687 17.14,-17.4687 7.578,0 12.457,4.5586 15.918,10.8008 l 7.571,-4.3321 c -5.008,-9.3593 -13.469,-14.6992 -24.161,-14.6992 -15.578,0 -25.597,11.9024 -25.597,26.9297 0,15.4805 9.008,28.2813 25.367,28.2813 16.82,0 25.723,-13.9102 24.84,-29.5118 l -41.078,0" /><path
         id="path120"
         style="fill:#ffffff;fill-opacity:1;fill-rule:nonzero;stroke:none"
         d="m 726.629,75.3711 0.211,0 c 3.672,5.0078 8.469,7.7891 14.922,7.7891 14.468,0 17.808,-10.461 17.808,-22.6993 l 0,-31.0703 -8.91,0 0,29.5196 c 0,8.4492 -0.648,16.0117 -11.019,16.0117 -12.25,0 -13.012,-11.3633 -13.012,-20.6914 l 0,-24.8399 -8.91,0 0,52.3399 8.91,0 0,-6.3594" /><path
         id="path122"
         style="fill:#ffffff;fill-opacity:1;fill-rule:nonzero;stroke:none"
         d="m 785.852,29.3906 -8.911,0 0,44.0899 -5.472,0 0,8.25 5.472,0 0,18.8005 8.911,0 0,-18.8005 9.347,0 0,-8.25 -9.347,0 0,-44.0899" /><path
         id="path124"
         style="fill:#ffffff;fill-opacity:1;fill-rule:nonzero;stroke:none"
         d="m 841.73,55.5508 c 0,-10.6914 7.571,-19.3711 18.598,-19.3711 11.012,0 18.57,8.6797 18.57,19.3711 0,10.5781 -7.558,19.3711 -18.57,19.3711 -11.027,0 -18.598,-8.793 -18.598,-19.3711 z m -8.902,-0.1094 c 0,15.3672 12.133,27.7188 27.5,27.7188 15.352,0 27.481,-12.3516 27.481,-27.7188 0,-15.3711 -12.231,-27.4922 -27.481,-27.4922 -15.258,0 -27.5,12.1211 -27.5,27.4922" /><path
         id="path126"
         style="fill:#ffffff;fill-opacity:1;fill-rule:nonzero;stroke:none"
         d="m 909.75,29.3906 -8.898,0 0,44.0899 -4.911,0 0,8.25 4.911,0 0,20.8085 c 0,4.332 0,9.789 2.328,13.582 2.898,4.668 8.121,6.578 13.468,6.578 2.122,0 4.223,-0.449 6.34,-1.129 l 0,-9.011 c -2,0.652 -3.777,1.23 -6.008,1.23 -7.23,0 -7.23,-5.129 -7.23,-14.3671 l 0,-17.6914 13.238,0 0,-8.25 -13.238,0 0,-44.0899" /><path
         id="path128"
         style="fill:#ffffff;fill-opacity:1;fill-rule:nonzero;stroke:none"
         d="m 1028.86,94.9492 c -6.68,6.9098 -15.92,11.1408 -25.6,11.1408 -18.701,0 -33.838,-16.2619 -33.838,-34.7189 0,-18.5 15.238,-34.75 34.068,-34.75 9.45,0 18.69,4.457 25.37,11.1406 l 0,-11.582 c -7.22,-5.2305 -16.13,-8.2305 -25.04,-8.2305 -23.711,0 -43.761,19.2617 -43.761,43.0703 0,24.0508 19.703,43.7615 43.761,43.7615 9.36,0 17.58,-2.672 25.04,-8.242 l 0,-11.5898" /><path
         id="path130"
         style="fill:#ffffff;fill-opacity:1;fill-rule:nonzero;stroke:none"
         d="m 1048.91,55.5508 c 0,-10.6914 7.57,-19.3711 18.59,-19.3711 11.01,0 18.58,8.6797 18.58,19.3711 0,10.5781 -7.57,19.3711 -18.58,19.3711 -11.02,0 -18.59,-8.793 -18.59,-19.3711 z M 1040,55.4414 c 0,15.3672 12.13,27.7188 27.5,27.7188 15.36,0 27.5,-12.3516 27.5,-27.7188 0,-15.3711 -12.24,-27.4922 -27.5,-27.4922 -15.26,0 -27.5,12.1211 -27.5,27.4922" /><path
         id="path132"
         style="fill:#ffffff;fill-opacity:1;fill-rule:nonzero;stroke:none"
         d="m 1116.15,76.0313 0.22,0 c 2.78,4.3476 7.23,7.1289 12.59,7.1289 6.11,0 11.68,-3.2383 14.46,-8.6914 3.13,5.8007 9.35,8.6914 15.7,8.6914 13.36,0 16.7,-10.9102 16.7,-21.9297 l 0,-31.8399 -8.91,0 0,30.3907 c 0,6.7968 -0.45,15.1406 -9.57,15.1406 -10.24,0 -11.37,-9.9024 -11.37,-17.8203 l 0,-27.711 -8.9,0 0,29.7188 c 0,6.4687 -0.79,15.8125 -9.34,15.8125 -10.47,0 -11.58,-10.5703 -11.58,-18.4727 l 0,-27.0586 -8.91,0 0,52.3399 8.91,0 0,-5.6992" /><path
         id="path134"
         style="fill:#ffffff;fill-opacity:1;fill-rule:nonzero;stroke:none"
         d="m 1201.64,76.0313 0.22,0 c 2.79,4.3476 7.25,7.1289 12.59,7.1289 6.11,0 11.69,-3.2383 14.47,-8.6914 3.12,5.8007 9.36,8.6914 15.69,8.6914 13.36,0 16.71,-10.9102 16.71,-21.9297 l 0,-31.8399 -8.9,0 0,30.3907 c 0,6.7968 -0.45,15.1406 -9.58,15.1406 -10.25,0 -11.36,-9.9024 -11.36,-17.8203 l 0,-27.711 -8.91,0 0,29.7188 c 0,6.4687 -0.78,15.8125 -9.35,15.8125 -10.45,0 -11.58,-10.5703 -11.58,-18.4727 l 0,-27.0586 -8.91,0 0,52.3399 8.91,0 0,-5.6992" /><path
         id="path136"
         style="fill:#ffffff;fill-opacity:1;fill-rule:nonzero;stroke:none"
         d="m 1314.42,61.2305 c -1.23,7.5703 -7.57,13.6914 -15.37,13.6914 -7.68,0 -14.8,-6.1211 -15.91,-13.6914 l 31.28,0 z m -31.73,-7.5821 c 0.11,-9.6875 7.02,-17.4687 17.14,-17.4687 7.58,0 12.48,4.5586 15.93,10.8008 l 7.57,-4.3321 c -5.01,-9.3593 -13.48,-14.6992 -24.16,-14.6992 -15.59,0 -25.61,11.9024 -25.61,26.9297 0,15.4805 9.01,28.2813 25.39,28.2813 16.81,0 25.71,-13.9102 24.81,-29.5118 l -41.07,0" /><path
         id="path138"
         style="fill:#ffffff;fill-opacity:1;fill-rule:nonzero;stroke:none"
         d="m 1344.47,76.0313 0.23,0 c 3.13,4.1406 5.78,7.1289 11.58,7.1289 3.01,0 5.45,-1 8.01,-2.461 l -4.22,-8.1211 c -1.77,1.2305 -3,2.3438 -5.35,2.3438 -9.78,0 -10.25,-12.5703 -10.25,-19.3711 l 0,-26.1602 -8.91,0 0,52.3399 8.91,0 0,-5.6992" /><path
         id="path140"
         style="fill:#ffffff;fill-opacity:1;fill-rule:nonzero;stroke:none"
         d="m 1412.16,66.1289 -0.21,0 c -4.12,5.2422 -9.24,8.793 -16.27,8.793 -10.78,0 -18.46,-8.9102 -18.46,-19.3711 0,-10.3516 7.11,-19.3711 18.01,-19.3711 7.48,0 12.71,3.3516 17.05,9.0195 l 0.22,0 0,-11.9101 c -5.12,-3.4493 -10.36,-5.3399 -16.59,-5.3399 -15.8,0 -27.83,11.7891 -27.83,27.6016 0,15.5898 12.58,27.6094 27.93,27.6094 5.68,0 11.49,-1.8789 16.15,-5.2305 l 0,-11.8008" /><g
         id="g142"><g
           clip-path="url(#clipPath146)"
           id="g144"><path
             id="path150"
             style="fill:#ffffff;fill-opacity:1;fill-rule:nonzero;stroke:none"
             d="m 1462.5,61.2305 c -1.24,7.5703 -7.58,13.6914 -15.38,13.6914 -7.67,0 -14.8,-6.1211 -15.91,-13.6914 l 31.29,0 z m -31.74,-7.5821 c 0.11,-9.6875 7.01,-17.4687 17.15,-17.4687 7.57,0 12.46,4.5586 15.91,10.8008 l 7.56,-4.3321 c -5,-9.3593 -13.46,-14.6992 -24.16,-14.6992 -15.56,0 -25.58,11.9024 -25.58,26.9297 0,15.4805 9,28.2813 25.39,28.2813 16.79,0 25.7,-13.9102 24.8,-29.5118 l -41.07,0" /><path
             id="path152"
             style="fill:#ffffff;fill-opacity:1;fill-rule:nonzero;stroke:none"
             d="m 54.9102,441.41 -49.01957,0 0,189.289 c 0,-0.211 0,35.711 35.87107,47.672 C 74.1094,688.75 95.75,667.84 95.7813,667.922 L 257.379,493.16 c 8.121,-5.012 11.41,0.192 11.34,4.988 l 0,180.223 49.472,0 0,-187.93 c -0.211,-16 -13.453,-35.871 -32.211,-43.589 -19.242,-7.473 -40.351,-7.411 -65.359,13.628 L 69.4414,624.789 c -3.9726,4.27 -14.3633,4.75 -14.5312,-3.629 l 0,-179.75" /></g></g><path
         id="path154"
         style="fill:#ffffff;fill-opacity:1;fill-rule:nonzero;stroke:none"
         d="m 349.98,678.371 49.469,0 0,-169.793 c -0.148,-18.066 14.973,-18.066 29.949,-18.137 l 219.711,0 c 9.18,0.071 19.59,10.879 19.532,21.77 0.058,11.32 -10.539,22.758 -20.442,22.699 l -142.988,0 c -24.582,-0.898 -75.633,21.809 -75.813,69.918 0.18,58.742 48.403,72 70.391,73.543 l 404.441,0 0,-49.941 -101.25,0 0,-187.02 -49.019,0 0,187.02 -247.852,0 c -23.589,2.058 -40.597,-38.61 -1.808,-44.489 l 152.07,0 c 22.848,0.207 60.668,-19.671 60.82,-69 -0.152,-49.953 -29.453,-73.601 -60.82,-73.531 l -224.691,0 c -37.102,-0.07 -50.41,8.379 -63.559,20.879 -12.172,12.02 -14.211,18.77 -18.141,43.582 l 0,172.5" /></g></g></svg>
